<svg viewBox="-11 0 507 507.66102" xmlns="http://www.w3.org/2000/svg"><path d="m113.511719 186.578125c-23.457031-.3125-45.792969 10.015625-60.746094 28.089844-33.5 40.785156-26.035156 78.101562-26.035156 78.101562-43.390625 50.730469-28.160157 93.398438 8.679687 93.398438 34.710938 0 34.710938-43.386719 34.710938-43.386719 26.03125-8.679688-8.765625-47.148438-8.765625-47.148438s-1.910157-81.894531 52.15625-74.34375" fill="#5e5f62"/><path d="m373.847656 221.289062c54.066406-7.550781 51.792969 74.34375 51.792969 74.34375s-34.800781 38.46875-8.765625 47.148438c0 0 0 43.386719 34.710938 43.386719 36.839843 0 52.066406-42.667969 8.679687-93.398438 0 0 7.460937-37.316406-26.035156-78.101562-14.8125-18.054688-37.03125-28.390625-60.382813-28.089844" fill="#5e5f62"/><path d="m148.222656 4.339844h190.914063c19.171875 0 34.710937 15.539062 34.710937 34.710937v347.117188c0 19.171875-15.539062 34.714843-34.710937 34.714843h-190.914063c-19.171875 0-34.710937-15.542968-34.710937-34.714843v-347.117188c0-19.171875 15.539062-34.710937 34.710937-34.710937zm0 0" fill="#67b9cc"/><path d="m373.847656 39.050781v45.125c-102.601562 61.378907-191.269531 143.484375-260.335937 241.074219v-286.199219c0-19.171875 15.539062-34.710937 34.710937-34.710937h190.914063c19.171875 0 34.710937 15.539062 34.710937 34.710937zm0 0" fill="#9fc9d3"/><g fill="#2c2f38"><path d="m165.578125 4.339844 13.484375 34.710937c3.074219 5.546875 9.003906 8.902344 15.34375 8.679688h98.546875c6.339844.222656 12.269531-3.132813 15.34375-8.679688l13.484375-34.710937"/><path d="m156.898438 39.050781c0 4.792969-3.882813 8.679688-8.675782 8.679688-4.792968 0-8.679687-3.886719-8.679687-8.679688s3.886719-8.679687 8.679687-8.679687c4.792969 0 8.675782 3.886718 8.675782 8.679687zm0 0"/><path d="m347.816406 39.050781c0 4.792969-3.886718 8.679688-8.679687 8.679688s-8.675781-3.886719-8.675781-8.679688 3.882812-8.679687 8.675781-8.679687 8.679687 3.886718 8.679687 8.679687zm0 0"/><path d="m182.933594 420.882812h34.710937v49.898438h-34.710937zm0 0"/><path d="m269.714844 420.882812h34.710937v49.898438h-34.710937zm0 0"/></g><path d="m156.898438 507.660156c0-23.960937 19.425781-43.390625 43.390624-43.390625 23.964844 0 43.390626 19.429688 43.390626 43.390625zm0 0" fill="#5e5f62"/><path d="m243.679688 507.660156c0-23.960937 19.425781-43.390625 43.390624-43.390625 23.960938 0 43.390626 19.429688 43.390626 43.390625zm0 0" fill="#5e5f62"/><path d="m205.671875 178.070312c12.675781-11.007812 15.65625-29.515624 7.070313-43.949218-8.582032-14.433594-26.265626-20.652344-41.996094-14.769532-15.726563 5.882813-24.988282 22.179688-21.992188 38.703126 2.996094 16.523437 17.386719 28.535156 34.179688 28.523437 1.128906 0 2.167968-.089844 3.296875-.175781zm0 0" fill="#fff"/><path d="m301.128906 186.402344c1.125.085937 2.167969.175781 3.296875.175781 16.792969.011719 31.183594-12 34.179688-28.523437 2.996093-16.523438-6.265625-32.820313-21.992188-38.703126-15.730469-5.882812-33.414062.335938-41.996093 14.769532-8.585938 14.433594-5.605469 32.941406 7.070312 43.949218zm0 0" fill="#fff"/><path d="m165.578125 203.933594c-4.121094-.003906-7.671875-2.898438-8.5-6.933594s1.296875-8.097656 5.082031-9.722656l60.746094-26.03125c4.386719-1.808594 9.410156.242187 11.28125 4.601562 1.867188 4.363282-.109375 9.417969-4.445312 11.347656l-60.746094 26.035157c-1.078125.460937-2.242188.703125-3.417969.703125zm0 0" fill="#285680"/><path d="m321.78125 203.933594c-1.175781 0-2.339844-.242188-3.417969-.703125l-60.746093-26.035157c-4.335938-1.929687-6.3125-6.984374-4.445313-11.347656 1.871094-4.359375 6.894531-6.410156 11.28125-4.601562l60.746094 26.03125c3.785156 1.625 5.910156 5.6875 5.082031 9.722656-.832031 4.035156-4.382812 6.929688-8.5 6.933594zm0 0" fill="#285680"/><path d="m191.613281 151.863281c0 4.792969-3.886719 8.679688-8.679687 8.679688-4.792969 0-8.679688-3.886719-8.679688-8.679688s3.886719-8.675781 8.679688-8.675781c4.792968 0 8.679687 3.882812 8.679687 8.675781zm0 0" fill="#5e5f62"/><path d="m182.933594 143.1875c0 4.792969-3.886719 8.675781-8.679688 8.675781-4.789062 0-8.675781-3.882812-8.675781-8.675781s3.886719-8.679688 8.675781-8.679688c4.792969 0 8.679688 3.886719 8.679688 8.679688zm0 0" fill="#fff"/><path d="m304.425781 143.1875c0 4.792969-3.886719 8.675781-8.679687 8.675781-4.792969 0-8.675782-3.882812-8.675782-8.675781s3.882813-8.679688 8.675782-8.679688c4.792968 0 8.679687 3.886719 8.679687 8.679688zm0 0" fill="#fff"/><path d="m313.101562 151.863281c0 4.792969-3.882812 8.679688-8.675781 8.679688s-8.679687-3.886719-8.679687-8.679688 3.886718-8.675781 8.679687-8.675781 8.675781 3.882812 8.675781 8.675781zm0 0" fill="#5e5f62"/><path d="m208.96875 91.117188c-1.710938 0-3.386719-.507813-4.808594-1.457032-12.992187-8.082031-29.445312-8.082031-42.433594 0-3.988281 2.660156-9.378906 1.585938-12.039062-2.402344-2.660156-3.988281-1.582031-9.378906 2.40625-12.039062 18.8125-12.003906 42.882812-12.003906 61.699219 0 3.183593 2.125 4.601562 6.082031 3.488281 9.742188-1.109375 3.660156-4.488281 6.164062-8.3125 6.15625zm0 0" fill="#285680"/><path d="m330.460938 91.117188c-1.699219 0-3.359376-.503907-4.773438-1.4375-12.988281-8.132813-29.484375-8.132813-42.472656 0-2.578125 1.71875-5.878906 1.933593-8.660156.558593-2.777344-1.371093-4.613282-4.125-4.816407-7.21875-.199219-3.09375 1.265625-6.0625 3.84375-7.78125 18.816407-12.011719 42.886719-12.011719 61.703125 0 3.164063 2.128907 4.570313 6.074219 3.460938 9.726563-1.109375 3.648437-4.472656 6.148437-8.285156 6.152344zm0 0" fill="#285680"/><path d="m215.648438 304.421875c-17.539063-4.039063-34.054688-11.660156-48.507813-22.386719-34.710937-26.035156-17.355469-69.425781 17.355469-52.070312 1.386718.695312 2.777344 1.390625 4.164062 1.996094 12.324219 6.125 25.394532 10.617187 38.878906 13.363281 13.867188 2.453125 28.113282 1.710937 41.652344-2.167969 11.636719-3.261719 22.917969-7.679688 33.671875-13.191406 34.710938-17.355469 52.066407 26.035156 17.355469 52.070312-5.015625 3.75-10.328125 7.085938-15.878906 9.976563-10.257813 5.484375-21.160156 9.652343-32.457032 12.410156zm0 0" fill="#802d40"/><path d="m243.679688 386.167969c52.066406 0 43.390624-43.386719 34.710937-60.746094-3.257813-6.785156-5.484375-14.023437-6.601563-21.46875-.871093-5.207031-1.214843-10.222656-1.582031-15.488281-.523437-7.664063-6.707031-13.714844-14.378906-14.078125-2.996094-.003907-5.902344 1.015625-8.234375 2.890625-.667969.539062-4.722656 3.984375-3.949219 4.757812-4.136719-5.351562-10.785156-8.125-17.496093-7.300781-12.285157 3.472656-8.824219 19.441406-10.488282 29.125-1.164062 7.476563-3.417968 14.742187-6.691406 21.5625-8.679688 17.359375-17.355469 60.746094 34.710938 60.746094zm0 0" fill="#ff5364"/><path d="m243.679688 360.136719c-4.792969 0-8.679688-3.886719-8.679688-8.679688v-17.355469c0-4.792968 3.886719-8.679687 8.679688-8.679687 4.792968 0 8.679687 3.886719 8.679687 8.679687v17.355469c0 4.792969-3.886719 8.679688-8.679687 8.679688zm0 0" fill="#df4d60"/><path d="m339.136719 425.21875h-190.914063c-21.558594-.023438-39.027344-17.492188-39.050781-39.050781v-347.117188c.023437-21.558593 17.492187-39.0273435 39.050781-39.050781h190.914063c21.558593.0234375 39.027343 17.492188 39.050781 39.050781v347.117188c-.023438 21.558593-17.492188 39.027343-39.050781 39.050781zm-190.914063-416.539062c-16.773437 0-30.375 13.597656-30.375 30.371093v347.117188c0 16.777343 13.601563 30.375 30.375 30.375h190.914063c16.773437 0 30.375-13.597657 30.375-30.375v-347.117188c0-16.773437-13.601563-30.371093-30.375-30.371093zm0 0" fill="#2c2f38"/><path d="m306.863281 143.1875c0 4.792969-3.886719 8.675781-8.675781 8.675781-4.792969 0-8.679688-3.882812-8.679688-8.675781s3.886719-8.679688 8.679688-8.679688c4.789062 0 8.675781 3.886719 8.675781 8.679688zm0 0" fill="#fff"/></svg>